# xmcd
#
# Track frame offsets:
#	150
#	21147
#	42578
#	64330
#	88659
#	108033
#	127835
#	148782
#
# Disc length: 2285 seconds
#
# Revision: 2
# Processed by: cddbd v1.5.2PL0 Copyright (c) Steve Scherf et al.
# Submitted via: EasyCDDAExtractor 11.1.0.1
#
DISCID=6908eb08
DTITLE=Muddy Waters - After The Rain
DYEAR=1969
DGENRE=Blues
TTITLE0=I Am The Blues
TTITLE1=Ramblin' Mind
TTITLE2=Rollin' And Tumblin'
TTITLE3=Bottom Of The Sea
TTITLE4=Honey Bee
TTITLE5=Blues And Trouble
TTITLE6=Hurtin' Soul
TTITLE7=Screamin' And Cryin'
EXTD=
EXTT0=
EXTT1=
EXTT2=
EXTT3=
EXTT4=
EXTT5=
EXTT6=
EXTT7=
PLAYORDER=
